<?xml version="1.0" encoding="UTF-8"?>
<svg id="uuid-031e820f-e071-4c0b-ae0e-b5b1ad05d49f" data-name="Capa 1" xmlns="http://www.w3.org/2000/svg" viewBox="0 0 512 512">
  <g>
    <path d="m88.81,256c0-73.19,37.93-137.52,95.19-174.42-.36,0-.71-.01-1.07-.01-96.34,0-174.43,78.1-174.43,174.43s78.1,174.43,174.43,174.43c.36,0,.71-.01,1.07-.01-57.27-36.9-95.19-101.23-95.19-174.42Z" fill="#9baeb9" opacity=".68"/>
    <path d="m296.15,48.65c-41.32,0-79.82,12.09-112.15,32.93,95.85.57,173.37,78.44,173.37,174.42s-77.52,173.85-173.37,174.42c32.33,20.83,70.83,32.93,112.15,32.93,114.51,0,207.35-92.83,207.35-207.35S410.67,48.65,296.15,48.65Z" fill="#f9be35" opacity=".68"/>
  </g>
  <path d="m184,81.58c-57.27,36.9-95.2,101.22-95.2,174.42s37.93,137.52,95.2,174.42c95.84-.58,173.37-78.44,173.37-174.42s-77.53-173.84-173.37-174.42Z" fill="#243240"/>
</svg>